<svg id="Layer_1" data-name="Layer 1" xmlns="http://www.w3.org/2000/svg" xmlns:xlink="http://www.w3.org/1999/xlink" viewBox="0 0 295.33 302.94"><defs><style>.cls-1{fill:none;}.cls-2{clip-path:url(#clip-path);}.cls-3{fill:#fff;}.cls-4{fill:#eb0a1e;}</style><clipPath id="clip-path" transform="translate(-2.34 -9.58)"><rect class="cls-1" x="-500" y="-116.89" width="1300" height="550"/></clipPath></defs><g class="cls-2"><path class="cls-3" d="M38.56,269.75H25.35V311.8H15.69V269.75H2.34v-8.37H38.56Z" transform="translate(-2.34 -9.58)"/><path class="cls-3" d="M67.85,297.6h-18l-5,14.2H35.11l18.75-50.43H64.23L83,311.8H72.83Zm-2.7-7.6-6.32-18.11L52.51,290Z" transform="translate(-2.34 -9.58)"/><path class="cls-3" d="M84,286.66c0-15.48,11.22-26,26.49-26a29.8,29.8,0,0,1,16.62,4.9L124,274.23a22.6,22.6,0,0,0-13.14-4.55c-10,0-16.83,7-16.83,16.83,0,9.66,6.6,17,16.83,17a25,25,0,0,0,14.35-4.83l2.7,8.45a29.3,29.3,0,0,1-17.76,5.4C94.84,312.51,84,301.93,84,286.66Z" transform="translate(-2.34 -9.58)"/><path class="cls-3" d="M131.13,286.59c0-15.48,11.3-25.93,26.42-25.93S184,271.18,184,286.44s-11.29,26.07-26.56,26.07C142.5,312.51,131.13,302.07,131.13,286.59Zm42.9,0c0-9.8-6.81-16.84-16.47-16.84s-16.4,7-16.4,16.84,6.81,16.83,16.4,16.83,16.47-7,16.47-16.83Z" transform="translate(-2.34 -9.58)"/><path class="cls-3" d="M192,261.38h12.35l13.43,23.86,14.13-23.86h12V311.8h-9.45V273.73l-13,22.66H214l-12.71-22.66V311.8H192Z" transform="translate(-2.34 -9.58)"/><path class="cls-3" d="M282.54,297.6h-18l-5,14.2H249.8l18.75-50.43h10.37l18.75,50.43H287.51Zm-2.7-7.6-6.32-18.11L267.2,290Z" transform="translate(-2.34 -9.58)"/><rect class="cls-4" x="46.66" width="201.4" height="201.4"/><path class="cls-3" d="M183.28,66.52a120.44,120.44,0,0,0-67.17,0c-24.86,8-41.94,24.59-41.94,43.77,0,27,33.81,48.86,75.52,48.86s75.52-21.88,75.52-48.86c0-19.18-17.08-35.77-41.93-43.77m-33.59,71.62c-6.22,0-11.31-12.24-11.6-27.62,3.74.34,7.62.52,11.6.52s7.86-.18,11.61-.52c-.3,15.38-5.38,27.62-11.61,27.62M138.87,98.48c1.7-10.79,5.9-18.44,10.82-18.44s9.12,7.65,10.82,18.44c-3.46.32-7.08.49-10.82.49s-7.36-.17-10.82-.49m28.25-.81c-2.52-16.94-9.37-29.09-17.43-29.09s-14.91,12.15-17.43,29.09c-15.34-2.4-26.07-7.85-26.07-14.2,0-8.55,19.48-15.49,43.5-15.49s43.5,6.94,43.5,15.49c0,6.35-10.72,11.8-26.06,14.2M85.19,108.5c0-8.27,3.18-16,8.74-22.69a9.32,9.32,0,0,0-.1,1.4c0,10.4,15.63,19.25,37.42,22.5q0,1.17,0,2.37c0,19.34,5.36,35.73,12.78,41.38-33-2-58.81-21.37-58.81-45m70.19,45c7.41-5.65,12.78-22,12.78-41.38q0-1.2,0-2.37c21.79-3.25,37.42-12.1,37.42-22.5a9.32,9.32,0,0,0-.1-1.4c5.56,6.67,8.74,14.42,8.74,22.69,0,23.59-25.85,42.94-58.81,45" transform="translate(-2.34 -9.58)"/></g></svg>