<svg id="Layer_1" data-name="Layer 1" xmlns="http://www.w3.org/2000/svg" xmlns:xlink="http://www.w3.org/1999/xlink" viewBox="470 180 350 200"><defs><style>.cls-1{fill:none;}.cls-2{clip-path:url(#clip-path);}.cls-3{fill:#eb0a1e;}.cls-4{fill:#fff;}</style><clipPath id="clip-path"><rect class="cls-1" width="1300" height="550"/></clipPath></defs><g class="cls-2"><path d="M765.665,406.917l7.084-18.578,7.073,18.578ZM780.1,377.79H765.39l-20.558,50.373h12.744l4.683-12.293h20.972l4.685,12.293h12.738ZM676.34,419.405c-8.3,0-15.019-7.49-15.019-16.734s6.718-16.738,15.019-16.738,15.018,7.494,15.018,16.738-6.73,16.734-15.018,16.734m0-43.342a26.606,26.606,0,1,0,26.607,26.608,26.611,26.611,0,0,0-26.607-26.608M571.355,419.405c-8.288,0-15.011-7.49-15.011-16.734s6.723-16.738,15.011-16.738,15.022,7.494,15.022,16.738-6.724,16.734-15.022,16.734m0-43.342a26.606,26.606,0,1,0,26.606,26.608,26.6,26.6,0,0,0-26.606-26.608m65.76,1.727-13.036,20.38-13.046-20.38H598.284l20.18,31.589v18.784h11.222v-18.78l20.179-31.593Zm110.4,0H704.452v9.659H720.4v40.714h11.234V387.449h15.88Zm-248.169,9.659H515.3v40.714h11.229V387.449h15.884V377.79H499.346Z"/><rect class="cls-3" x="549.343" y="126.181" width="201.396" height="201.396"/><path class="cls-4" d="M683.627,183.116a120.349,120.349,0,0,0-67.169,0c-24.86,7.992-41.941,24.589-41.941,43.769,0,26.982,33.813,48.86,75.528,48.86s75.519-21.878,75.519-48.86c0-19.18-17.081-35.772-41.937-43.769m-33.582,71.621c-6.226,0-11.309-12.238-11.607-27.618,3.743.337,7.626.518,11.607.518s7.857-.181,11.605-.518c-.3,15.38-5.382,27.618-11.605,27.618m-10.823-39.658c1.7-10.8,5.9-18.441,10.823-18.441s9.119,7.646,10.815,18.441c-3.458.313-7.08.486-10.815.486s-7.36-.173-10.823-.486m28.253-.814c-2.527-16.943-9.375-29.089-17.43-29.089s-14.91,12.146-17.435,29.089c-15.342-2.395-26.065-7.846-26.065-14.2,0-8.556,19.476-15.492,43.5-15.492s43.5,6.936,43.5,15.492c0,6.35-10.723,11.8-26.065,14.2M585.54,225.1c0-8.272,3.183-16.023,8.738-22.692a10.371,10.371,0,0,0-.1,1.4c0,10.405,15.63,19.25,37.421,22.5-.017.785-.03,1.573-.03,2.368,0,19.347,5.366,35.735,12.785,41.384-32.962-2.015-58.816-21.37-58.816-44.96m70.191,44.96c7.416-5.649,12.781-22.035,12.781-41.384,0-.795-.009-1.583-.026-2.368,21.786-3.252,37.418-12.1,37.418-22.5a10.374,10.374,0,0,0-.1-1.4c5.554,6.669,8.738,14.42,8.738,22.692,0,23.59-25.854,42.945-58.81,44.96"/></g></svg>